<svg width="3115" height="3633" viewBox="0 0 3115 3633" fill="none" xmlns="http://www.w3.org/2000/svg">
<g filter="url(#filter0_ii_3017_28)">
<path d="M1764.86 3160.8C1750.46 3160.8 1725.26 3154.8 1689.26 3142.8C1653.26 3133.2 1619.66 3118.8 1588.46 3099.6C1557.26 3080.4 1539.26 3058.8 1534.46 3034.8C1520.06 2936.4 1505.66 2822.4 1491.26 2692.8C1479.26 2560.8 1468.46 2422.8 1458.86 2278.8C1451.66 2132.4 1448.06 1989.6 1448.06 1850.4C1448.06 1713.6 1452.86 1584 1462.46 1461.6C1472.06 1339.2 1485.26 1233.6 1502.06 1144.8C1480.46 1166.4 1455.26 1195.2 1426.46 1231.2C1397.66 1267.2 1370.06 1300.8 1343.66 1332C1319.66 1360.8 1304.06 1375.2 1296.86 1375.2C1289.66 1375.2 1286.06 1369.2 1286.06 1357.2V1346.4C1314.86 1284 1353.26 1213.2 1401.26 1134C1449.26 1052.4 1499.66 972 1552.46 892.8C1605.26 811.2 1653.26 739.2 1696.46 676.8C1696.46 674.4 1700.06 673.2 1707.26 673.2C1721.66 673.2 1743.26 681.6 1772.06 698.4C1800.86 715.2 1827.26 734.4 1851.26 756C1875.26 777.6 1887.26 798 1887.26 817.2V820.8C1827.26 921.6 1779.26 1042.8 1743.26 1184.4C1709.66 1323.6 1685.66 1474.8 1671.26 1638C1659.26 1798.8 1653.26 1963.2 1653.26 2131.2C1653.26 2224.8 1654.46 2317.2 1656.86 2408.4C1661.66 2499.6 1666.46 2588.4 1671.26 2674.8C1690.46 2475.6 1731.26 2283.6 1793.66 2098.8C1856.06 1911.6 1925.66 1726.8 2002.46 1544.4C2079.26 1359.6 2147.66 1170 2207.66 975.6C2250.86 836.4 2288.06 730.8 2319.26 658.8C2352.86 584.4 2382.86 534 2409.26 507.6C2435.66 478.8 2458.46 464.4 2477.66 464.4C2484.86 464.4 2500.46 476.4 2524.46 500.4C2550.86 522 2576.06 549.6 2600.06 583.2C2624.06 616.8 2636.06 650.4 2636.06 684C2636.06 696 2634.86 704.4 2632.46 709.2C2596.46 879.6 2565.26 1058.4 2538.86 1245.6C2512.46 1430.4 2499.26 1616.4 2499.26 1803.6C2499.26 1892.4 2504.06 1989.6 2513.66 2095.2C2523.26 2200.8 2537.66 2301.6 2556.86 2397.6C2578.46 2493.6 2603.66 2571.6 2632.46 2631.6C2661.26 2691.6 2694.86 2721.6 2733.26 2721.6C2759.66 2721.6 2789.66 2704.8 2823.26 2671.2C2859.26 2637.6 2896.46 2584.8 2934.86 2512.8C2951.66 2484 2970.86 2442 2992.46 2386.8C3016.46 2329.2 3039.26 2277.6 3060.86 2232C3082.46 2186.4 3096.86 2163.6 3104.06 2163.6C3111.26 2163.6 3114.86 2178 3114.86 2206.8C3114.86 2238 3107.66 2276.4 3093.26 2322C3078.86 2367.6 3062.06 2412 3042.86 2455.2C3026.06 2496 3012.86 2527.2 3003.26 2548.8C2933.66 2688 2866.46 2787.6 2801.66 2847.6C2739.26 2905.2 2682.86 2934 2632.46 2934C2572.46 2934 2519.66 2901.6 2474.06 2836.8C2428.46 2769.6 2390.06 2682 2358.86 2574C2327.66 2466 2302.46 2347.2 2283.26 2217.6C2264.06 2085.6 2249.66 1953.6 2240.06 1821.6C2232.86 1687.2 2229.26 1563.6 2229.26 1450.8C2229.26 1414.8 2229.26 1378.8 2229.26 1342.8C2229.26 1306.8 2230.46 1270.8 2232.86 1234.8C2187.26 1347.6 2134.46 1468.8 2074.46 1598.4C2016.86 1725.6 1960.46 1872 1905.26 2037.6C1850.06 2203.2 1804.46 2400 1768.46 2628C1763.66 2664 1760.06 2701.2 1757.66 2739.6C1755.26 2775.6 1754.06 2812.8 1754.06 2851.2C1754.06 2923.2 1756.46 2988 1761.26 3045.6C1768.46 3103.2 1774.46 3140.4 1779.26 3157.2C1779.26 3159.6 1774.46 3160.8 1764.86 3160.8Z" fill="url(#paint0_linear_3017_28)"/>
<path d="M1252.8 2955.6C1252.8 3106.8 1221.6 3232.8 1159.2 3333.6C1099.2 3434.4 1018.8 3508.8 918 3556.8C819.6 3607.2 714 3632.4 601.2 3632.4C464.4 3632.4 338.4 3600 223.2 3535.2C110.4 3470.4 36 3381.6 0 3268.8C43.2 3187.2 78 3079.2 104.4 2944.8C130.8 2808 144 2671.2 144 2534.4C144 2292 102 2107.2 18 1980C171.6 2040 279.6 2148 342 2304C404.4 2457.6 435.6 2647.2 435.6 2872.8C435.6 2966.4 432 3060 424.8 3153.6C410.4 3192 403.2 3225.6 403.2 3254.4C403.2 3302.4 417.6 3338.4 446.4 3362.4C475.2 3388.8 512.4 3402 558 3402C608.4 3402 658.8 3385.2 709.2 3351.6C762 3318 805.2 3267.6 838.8 3200.4C874.8 3130.8 892.8 3048 892.8 2952V2221.2C892.8 2132.4 865.2 2056.8 810 1994.4C757.2 1929.6 672 1851.6 554.4 1760.4C436.8 1669.2 340.8 1586.4 266.4 1512C194.4 1437.6 132 1341.6 79.2 1224C26.4 1106.4 0 966 0 802.8C0 658.8 27.6 526.8 82.8 406.8C138 284.4 219.6 186 327.6 111.6C438 37.1999 571.2 0 727.2 0C840 0 942 20.4 1033.2 61.1999C1126.8 99.5999 1190.4 142.8 1224 190.8C1173.6 255.6 1129.2 362.4 1090.8 511.2C1054.8 657.6 1036.8 807.6 1036.8 961.2C1036.8 1153.2 1069.2 1314 1134 1443.6C1002 1393.2 900 1298.4 828 1159.2C758.4 1020 723.6 861.6 723.6 684C723.6 520.8 752.4 370.8 810 234C658.8 222 547.2 271.2 475.2 381.6C403.2 492 367.2 633.6 367.2 806.4C367.2 900 385.2 984 421.2 1058.4C457.2 1130.4 501.6 1192.8 554.4 1245.6C609.6 1298.4 684 1362 777.6 1436.4C878.4 1515.6 958.8 1586.4 1018.8 1648.8C1081.2 1708.8 1134 1783.2 1177.2 1872C1222.8 1960.8 1248 2065.2 1252.8 2185.2V2955.6Z" fill="url(#paint1_linear_3017_28)"/>
</g>
<defs>
<filter id="filter0_ii_3017_28" x="-37" y="0" width="3193.86" height="3655.4" filterUnits="userSpaceOnUse" color-interpolation-filters="sRGB">
<feFlood flood-opacity="0" result="BackgroundImageFix"/>
<feBlend mode="normal" in="SourceGraphic" in2="BackgroundImageFix" result="shape"/>
<feColorMatrix in="SourceAlpha" type="matrix" values="0 0 0 0 0 0 0 0 0 0 0 0 0 0 0 0 0 0 127 0" result="hardAlpha"/>
<feOffset dx="42" dy="4"/>
<feGaussianBlur stdDeviation="21.65"/>
<feComposite in2="hardAlpha" operator="arithmetic" k2="-1" k3="1"/>
<feColorMatrix type="matrix" values="0 0 0 0 0.538462 0 0 0 0 0 0 0 0 0 0 0 0 0 0.55 0"/>
<feBlend mode="normal" in2="shape" result="effect1_innerShadow_3017_28"/>
<feColorMatrix in="SourceAlpha" type="matrix" values="0 0 0 0 0 0 0 0 0 0 0 0 0 0 0 0 0 0 127 0" result="hardAlpha"/>
<feOffset dx="-37" dy="23"/>
<feGaussianBlur stdDeviation="62.95"/>
<feComposite in2="hardAlpha" operator="arithmetic" k2="-1" k3="1"/>
<feColorMatrix type="matrix" values="0 0 0 0 1 0 0 0 0 0.851077 0 0 0 0 0.767308 0 0 0 0.38 0"/>
<feBlend mode="normal" in2="effect1_innerShadow_3017_28" result="effect2_innerShadow_3017_28"/>
</filter>
<linearGradient id="paint0_linear_3017_28" x1="1557.43" y1="0" x2="1557.43" y2="3632.4" gradientUnits="userSpaceOnUse">
<stop stop-color="#B20000"/>
<stop offset="1" stop-color="#FF5C00"/>
</linearGradient>
<linearGradient id="paint1_linear_3017_28" x1="1557.43" y1="0" x2="1557.43" y2="3632.4" gradientUnits="userSpaceOnUse">
<stop stop-color="#B20000"/>
<stop offset="1" stop-color="#FF5C00"/>
</linearGradient>
</defs>
</svg>
