<svg width="3325" height="3843" viewBox="0 0 3325 3843" fill="none" xmlns="http://www.w3.org/2000/svg">
<g filter="url(#filter0_di_21_507)">
<path d="M1869.86 3190.8C1855.46 3190.8 1830.26 3184.8 1794.26 3172.8C1758.26 3163.2 1724.66 3148.8 1693.46 3129.6C1662.26 3110.4 1644.26 3088.8 1639.46 3064.8C1625.06 2966.4 1610.66 2852.4 1596.26 2722.8C1584.26 2590.8 1573.46 2452.8 1563.86 2308.8C1556.66 2162.4 1553.06 2019.6 1553.06 1880.4C1553.06 1743.6 1557.86 1614 1567.46 1491.6C1577.06 1369.2 1590.26 1263.6 1607.06 1174.8C1585.46 1196.4 1560.26 1225.2 1531.46 1261.2C1502.66 1297.2 1475.06 1330.8 1448.66 1362C1424.66 1390.8 1409.06 1405.2 1401.86 1405.2C1394.66 1405.2 1391.06 1399.2 1391.06 1387.2V1376.4C1419.86 1314 1458.26 1243.2 1506.26 1164C1554.26 1082.4 1604.66 1002 1657.46 922.8C1710.26 841.2 1758.26 769.2 1801.46 706.8C1801.46 704.4 1805.06 703.2 1812.26 703.2C1826.66 703.2 1848.26 711.6 1877.06 728.4C1905.86 745.2 1932.26 764.4 1956.26 786C1980.26 807.6 1992.26 828 1992.26 847.2V850.8C1932.26 951.6 1884.26 1072.8 1848.26 1214.4C1814.66 1353.6 1790.66 1504.8 1776.26 1668C1764.26 1828.8 1758.26 1993.2 1758.26 2161.2C1758.26 2254.8 1759.46 2347.2 1761.86 2438.4C1766.66 2529.6 1771.46 2618.4 1776.26 2704.8C1795.46 2505.6 1836.26 2313.6 1898.66 2128.8C1961.06 1941.6 2030.66 1756.8 2107.46 1574.4C2184.26 1389.6 2252.66 1200 2312.66 1005.6C2355.86 866.4 2393.06 760.8 2424.26 688.8C2457.86 614.4 2487.86 564 2514.26 537.6C2540.66 508.8 2563.46 494.4 2582.66 494.4C2589.86 494.4 2605.46 506.4 2629.46 530.4C2655.86 552 2681.06 579.6 2705.06 613.2C2729.06 646.8 2741.06 680.4 2741.06 714C2741.06 726 2739.86 734.4 2737.46 739.2C2701.46 909.6 2670.26 1088.4 2643.86 1275.6C2617.46 1460.4 2604.26 1646.4 2604.26 1833.6C2604.26 1922.4 2609.06 2019.6 2618.66 2125.2C2628.26 2230.8 2642.66 2331.6 2661.86 2427.6C2683.46 2523.6 2708.66 2601.6 2737.46 2661.6C2766.26 2721.6 2799.86 2751.6 2838.26 2751.6C2864.66 2751.6 2894.66 2734.8 2928.26 2701.2C2964.26 2667.6 3001.46 2614.8 3039.86 2542.8C3056.66 2514 3075.86 2472 3097.46 2416.8C3121.46 2359.2 3144.26 2307.6 3165.86 2262C3187.46 2216.4 3201.86 2193.6 3209.06 2193.6C3216.26 2193.6 3219.86 2208 3219.86 2236.8C3219.86 2268 3212.66 2306.4 3198.26 2352C3183.86 2397.6 3167.06 2442 3147.86 2485.2C3131.06 2526 3117.86 2557.2 3108.26 2578.8C3038.66 2718 2971.46 2817.6 2906.66 2877.6C2844.26 2935.2 2787.86 2964 2737.46 2964C2677.46 2964 2624.66 2931.6 2579.06 2866.8C2533.46 2799.6 2495.06 2712 2463.86 2604C2432.66 2496 2407.46 2377.2 2388.26 2247.6C2369.06 2115.6 2354.66 1983.6 2345.06 1851.6C2337.86 1717.2 2334.26 1593.6 2334.26 1480.8C2334.26 1444.8 2334.26 1408.8 2334.26 1372.8C2334.26 1336.8 2335.46 1300.8 2337.86 1264.8C2292.26 1377.6 2239.46 1498.8 2179.46 1628.4C2121.86 1755.6 2065.46 1902 2010.26 2067.6C1955.06 2233.2 1909.46 2430 1873.46 2658C1868.66 2694 1865.06 2731.2 1862.66 2769.6C1860.26 2805.6 1859.06 2842.8 1859.06 2881.2C1859.06 2953.2 1861.46 3018 1866.26 3075.6C1873.46 3133.2 1879.46 3170.4 1884.26 3187.2C1884.26 3189.6 1879.46 3190.8 1869.86 3190.8Z" fill="url(#paint0_linear_21_507)"/>
<path d="M1357.8 2985.6C1357.8 3136.8 1326.6 3262.8 1264.2 3363.6C1204.2 3464.4 1123.8 3538.8 1023 3586.8C924.6 3637.2 819 3662.4 706.2 3662.4C569.4 3662.4 443.4 3630 328.2 3565.2C215.4 3500.4 141 3411.6 105 3298.8C148.2 3217.2 183 3109.2 209.4 2974.8C235.8 2838 249 2701.2 249 2564.4C249 2322 207 2137.2 123 2010C276.6 2070 384.6 2178 447 2334C509.4 2487.6 540.6 2677.2 540.6 2902.8C540.6 2996.4 537 3090 529.8 3183.6C515.4 3222 508.2 3255.6 508.2 3284.4C508.2 3332.4 522.6 3368.4 551.4 3392.4C580.2 3418.8 617.4 3432 663 3432C713.4 3432 763.8 3415.2 814.2 3381.6C867 3348 910.2 3297.6 943.8 3230.4C979.8 3160.8 997.8 3078 997.8 2982V2251.2C997.8 2162.4 970.2 2086.8 915 2024.4C862.2 1959.6 777 1881.6 659.4 1790.4C541.8 1699.2 445.8 1616.4 371.4 1542C299.4 1467.6 237 1371.6 184.2 1254C131.4 1136.4 105 996 105 832.8C105 688.8 132.6 556.8 187.8 436.8C243 314.4 324.6 216 432.6 141.6C543 67.1999 676.2 30 832.2 30C945 30 1047 50.4 1138.2 91.1999C1231.8 129.6 1295.4 172.8 1329 220.8C1278.6 285.6 1234.2 392.4 1195.8 541.2C1159.8 687.6 1141.8 837.6 1141.8 991.2C1141.8 1183.2 1174.2 1344 1239 1473.6C1107 1423.2 1005 1328.4 933 1189.2C863.4 1050 828.6 891.6 828.6 714C828.6 550.8 857.4 400.8 915 264C763.8 252 652.2 301.2 580.2 411.6C508.2 522 472.2 663.6 472.2 836.4C472.2 930 490.2 1014 526.2 1088.4C562.2 1160.4 606.6 1222.8 659.4 1275.6C714.6 1328.4 789 1392 882.6 1466.4C983.4 1545.6 1063.8 1616.4 1123.8 1678.8C1186.2 1738.8 1239 1813.2 1282.2 1902C1327.8 1990.8 1353 2095.2 1357.8 2215.2V2985.6Z" fill="url(#paint1_linear_21_507)"/>
</g>
<defs>
<filter id="filter0_di_21_507" x="0" y="0" width="3324.86" height="3962.4" filterUnits="userSpaceOnUse" color-interpolation-filters="sRGB">
<feFlood flood-opacity="0" result="BackgroundImageFix"/>
<feColorMatrix in="SourceAlpha" type="matrix" values="0 0 0 0 0 0 0 0 0 0 0 0 0 0 0 0 0 0 127 0" result="hardAlpha"/>
<feOffset dy="75"/>
<feGaussianBlur stdDeviation="52.5"/>
<feComposite in2="hardAlpha" operator="out"/>
<feColorMatrix type="matrix" values="0 0 0 0 0 0 0 0 0 0 0 0 0 0 0 0 0 0 0.21 0"/>
<feBlend mode="normal" in2="BackgroundImageFix" result="effect1_dropShadow_21_507"/>
<feBlend mode="normal" in="SourceGraphic" in2="effect1_dropShadow_21_507" result="shape"/>
<feColorMatrix in="SourceAlpha" type="matrix" values="0 0 0 0 0 0 0 0 0 0 0 0 0 0 0 0 0 0 127 0" result="hardAlpha"/>
<feOffset dy="300"/>
<feGaussianBlur stdDeviation="150"/>
<feComposite in2="hardAlpha" operator="arithmetic" k2="-1" k3="1"/>
<feColorMatrix type="matrix" values="0 0 0 0 1 0 0 0 0 1 0 0 0 0 1 0 0 0 0.15 0"/>
<feBlend mode="normal" in2="shape" result="effect2_innerShadow_21_507"/>
</filter>
<linearGradient id="paint0_linear_21_507" x1="1662.43" y1="30" x2="1662.43" y2="3662.4" gradientUnits="userSpaceOnUse">
<stop stop-color="#05003E"/>
<stop offset="1" stop-color="#330073"/>
</linearGradient>
<linearGradient id="paint1_linear_21_507" x1="1662.43" y1="30" x2="1662.43" y2="3662.4" gradientUnits="userSpaceOnUse">
<stop stop-color="#05003E"/>
<stop offset="1" stop-color="#330073"/>
</linearGradient>
</defs>
</svg>
