<svg width="6144" height="6464" viewBox="0 0 6144 6464" fill="none" xmlns="http://www.w3.org/2000/svg">
<rect width="6144" height="6464" rx="3072" fill="#FFFBF3"/>
<g filter="url(#filter0_di_3007_2)">
<path d="M3279.86 4576.8C3265.46 4576.8 3240.26 4570.8 3204.26 4558.8C3168.26 4549.2 3134.66 4534.8 3103.46 4515.6C3072.26 4496.4 3054.26 4474.8 3049.46 4450.8C3035.06 4352.4 3020.66 4238.4 3006.26 4108.8C2994.26 3976.8 2983.46 3838.8 2973.86 3694.8C2966.66 3548.4 2963.06 3405.6 2963.06 3266.4C2963.06 3129.6 2967.86 3000 2977.46 2877.6C2987.06 2755.2 3000.26 2649.6 3017.06 2560.8C2995.46 2582.4 2970.26 2611.2 2941.46 2647.2C2912.66 2683.2 2885.06 2716.8 2858.66 2748C2834.66 2776.8 2819.06 2791.2 2811.86 2791.2C2804.66 2791.2 2801.06 2785.2 2801.06 2773.2V2762.4C2829.86 2700 2868.26 2629.2 2916.26 2550C2964.26 2468.4 3014.66 2388 3067.46 2308.8C3120.26 2227.2 3168.26 2155.2 3211.46 2092.8C3211.46 2090.4 3215.06 2089.2 3222.26 2089.2C3236.66 2089.2 3258.26 2097.6 3287.06 2114.4C3315.86 2131.2 3342.26 2150.4 3366.26 2172C3390.26 2193.6 3402.26 2214 3402.26 2233.2V2236.8C3342.26 2337.6 3294.26 2458.8 3258.26 2600.4C3224.66 2739.6 3200.66 2890.8 3186.26 3054C3174.26 3214.8 3168.26 3379.2 3168.26 3547.2C3168.26 3640.8 3169.46 3733.2 3171.86 3824.4C3176.66 3915.6 3181.46 4004.4 3186.26 4090.8C3205.46 3891.6 3246.26 3699.6 3308.66 3514.8C3371.06 3327.6 3440.66 3142.8 3517.46 2960.4C3594.26 2775.6 3662.66 2586 3722.66 2391.6C3765.86 2252.4 3803.06 2146.8 3834.26 2074.8C3867.86 2000.4 3897.86 1950 3924.26 1923.6C3950.66 1894.8 3973.46 1880.4 3992.66 1880.4C3999.86 1880.4 4015.46 1892.4 4039.46 1916.4C4065.86 1938 4091.06 1965.6 4115.06 1999.2C4139.06 2032.8 4151.06 2066.4 4151.06 2100C4151.06 2112 4149.86 2120.4 4147.46 2125.2C4111.46 2295.6 4080.26 2474.4 4053.86 2661.6C4027.46 2846.4 4014.26 3032.4 4014.26 3219.6C4014.26 3308.4 4019.06 3405.6 4028.66 3511.2C4038.26 3616.8 4052.66 3717.6 4071.86 3813.6C4093.46 3909.6 4118.66 3987.6 4147.46 4047.6C4176.26 4107.6 4209.86 4137.6 4248.26 4137.6C4274.66 4137.6 4304.66 4120.8 4338.26 4087.2C4374.26 4053.6 4411.46 4000.8 4449.86 3928.8C4466.66 3900 4485.86 3858 4507.46 3802.8C4531.46 3745.2 4554.26 3693.6 4575.86 3648C4597.46 3602.4 4611.86 3579.6 4619.06 3579.6C4626.26 3579.6 4629.86 3594 4629.86 3622.8C4629.86 3654 4622.66 3692.4 4608.26 3738C4593.86 3783.6 4577.06 3828 4557.86 3871.2C4541.06 3912 4527.86 3943.2 4518.26 3964.8C4448.66 4104 4381.46 4203.6 4316.66 4263.6C4254.26 4321.2 4197.86 4350 4147.46 4350C4087.46 4350 4034.66 4317.6 3989.06 4252.8C3943.46 4185.6 3905.06 4098 3873.86 3990C3842.66 3882 3817.46 3763.2 3798.26 3633.6C3779.06 3501.6 3764.66 3369.6 3755.06 3237.6C3747.86 3103.2 3744.26 2979.6 3744.26 2866.8C3744.26 2830.8 3744.26 2794.8 3744.26 2758.8C3744.26 2722.8 3745.46 2686.8 3747.86 2650.8C3702.26 2763.6 3649.46 2884.8 3589.46 3014.4C3531.86 3141.6 3475.46 3288 3420.26 3453.6C3365.06 3619.2 3319.46 3816 3283.46 4044C3278.66 4080 3275.06 4117.2 3272.66 4155.6C3270.26 4191.6 3269.06 4228.8 3269.06 4267.2C3269.06 4339.2 3271.46 4404 3276.26 4461.6C3283.46 4519.2 3289.46 4556.4 3294.26 4573.2C3294.26 4575.6 3289.46 4576.8 3279.86 4576.8Z" fill="url(#paint0_linear_3007_2)"/>
<path d="M2767.8 4371.6C2767.8 4522.8 2736.6 4648.8 2674.2 4749.6C2614.2 4850.4 2533.8 4924.8 2433 4972.8C2334.6 5023.2 2229 5048.4 2116.2 5048.4C1979.4 5048.4 1853.4 5016 1738.2 4951.2C1625.4 4886.4 1551 4797.6 1515 4684.8C1558.2 4603.2 1593 4495.2 1619.4 4360.8C1645.8 4224 1659 4087.2 1659 3950.4C1659 3708 1617 3523.2 1533 3396C1686.6 3456 1794.6 3564 1857 3720C1919.4 3873.6 1950.6 4063.2 1950.6 4288.8C1950.6 4382.4 1947 4476 1939.8 4569.6C1925.4 4608 1918.2 4641.6 1918.2 4670.4C1918.2 4718.4 1932.6 4754.4 1961.4 4778.4C1990.2 4804.8 2027.4 4818 2073 4818C2123.4 4818 2173.8 4801.2 2224.2 4767.6C2277 4734 2320.2 4683.6 2353.8 4616.4C2389.8 4546.8 2407.8 4464 2407.8 4368V3637.2C2407.8 3548.4 2380.2 3472.8 2325 3410.4C2272.2 3345.6 2187 3267.6 2069.4 3176.4C1951.8 3085.2 1855.8 3002.4 1781.4 2928C1709.4 2853.6 1647 2757.6 1594.2 2640C1541.4 2522.4 1515 2382 1515 2218.8C1515 2074.8 1542.6 1942.8 1597.8 1822.8C1653 1700.4 1734.6 1602 1842.6 1527.6C1953 1453.2 2086.2 1416 2242.2 1416C2355 1416 2457 1436.4 2548.2 1477.2C2641.8 1515.6 2705.4 1558.8 2739 1606.8C2688.6 1671.6 2644.2 1778.4 2605.8 1927.2C2569.8 2073.6 2551.8 2223.6 2551.8 2377.2C2551.8 2569.2 2584.2 2730 2649 2859.6C2517 2809.2 2415 2714.4 2343 2575.2C2273.4 2436 2238.6 2277.6 2238.6 2100C2238.6 1936.8 2267.4 1786.8 2325 1650C2173.8 1638 2062.2 1687.2 1990.2 1797.6C1918.2 1908 1882.2 2049.6 1882.2 2222.4C1882.2 2316 1900.2 2400 1936.2 2474.4C1972.2 2546.4 2016.6 2608.8 2069.4 2661.6C2124.6 2714.4 2199 2778 2292.6 2852.4C2393.4 2931.6 2473.8 3002.4 2533.8 3064.8C2596.2 3124.8 2649 3199.2 2692.2 3288C2737.8 3376.8 2763 3481.2 2767.8 3601.2V4371.6Z" fill="url(#paint1_linear_3007_2)"/>
</g>
<defs>
<filter id="filter0_di_3007_2" x="1410" y="1386" width="3324.86" height="3962.4" filterUnits="userSpaceOnUse" color-interpolation-filters="sRGB">
<feFlood flood-opacity="0" result="BackgroundImageFix"/>
<feColorMatrix in="SourceAlpha" type="matrix" values="0 0 0 0 0 0 0 0 0 0 0 0 0 0 0 0 0 0 127 0" result="hardAlpha"/>
<feOffset dy="75"/>
<feGaussianBlur stdDeviation="52.5"/>
<feComposite in2="hardAlpha" operator="out"/>
<feColorMatrix type="matrix" values="0 0 0 0 0 0 0 0 0 0 0 0 0 0 0 0 0 0 0.21 0"/>
<feBlend mode="normal" in2="BackgroundImageFix" result="effect1_dropShadow_3007_2"/>
<feBlend mode="normal" in="SourceGraphic" in2="effect1_dropShadow_3007_2" result="shape"/>
<feColorMatrix in="SourceAlpha" type="matrix" values="0 0 0 0 0 0 0 0 0 0 0 0 0 0 0 0 0 0 127 0" result="hardAlpha"/>
<feOffset dy="300"/>
<feGaussianBlur stdDeviation="150"/>
<feComposite in2="hardAlpha" operator="arithmetic" k2="-1" k3="1"/>
<feColorMatrix type="matrix" values="0 0 0 0 1 0 0 0 0 1 0 0 0 0 1 0 0 0 0.15 0"/>
<feBlend mode="normal" in2="shape" result="effect2_innerShadow_3007_2"/>
</filter>
<linearGradient id="paint0_linear_3007_2" x1="3072.43" y1="1416" x2="3072.43" y2="5048.4" gradientUnits="userSpaceOnUse">
<stop stop-color="#05003E"/>
<stop offset="1" stop-color="#330073"/>
</linearGradient>
<linearGradient id="paint1_linear_3007_2" x1="3072.43" y1="1416" x2="3072.43" y2="5048.4" gradientUnits="userSpaceOnUse">
<stop stop-color="#05003E"/>
<stop offset="1" stop-color="#330073"/>
</linearGradient>
</defs>
</svg>
