<svg width="12546" height="3755" viewBox="0 0 12546 3755" fill="none" xmlns="http://www.w3.org/2000/svg">
<path d="M8894.45 3697.5C8694.45 3760 8514.45 3771.25 8354.45 3731.25C8186.95 3686.25 8041.95 3616.25 7919.45 3521.25C7801.95 3426.25 7681.95 3312.5 7559.45 3180L5583.2 990V2865C5585.7 2952.5 5624.45 3017.5 5699.45 3060C5734.45 3080 5771.95 3090 5811.95 3090H5883.2V3127.5H5110.7V3090H5181.95C5244.45 3090 5298.2 3068.75 5343.2 3026.25C5388.2 2981.25 5410.7 2926.25 5410.7 2861.25V802.5C5398.2 785 5373.2 752.5 5335.7 705C5298.2 655 5266.95 615 5241.95 585C5216.95 555 5183.2 516.25 5140.7 468.75C5098.2 418.75 5058.2 378.75 5020.7 348.75C4985.7 318.75 4944.45 283.75 4896.95 243.75C4821.95 186.25 4741.95 145 4656.95 120C4571.95 95 4500.7 82.5001 4443.2 82.5001C4383.2 82.5001 4319.45 92.5001 4251.95 112.5L4236.95 75.0002C4356.95 25 4473.2 0 4585.7 0C4695.7 0 4790.7 13.75 4870.7 41.2501C4950.7 66.2501 5036.95 112.5 5129.45 180C5221.95 247.5 5296.95 310 5354.45 367.5C5414.45 425 5485.7 500 5568.2 592.5L7458.2 2692.5V768.75C7455.7 703.75 7431.95 650 7386.95 607.5C7341.95 562.5 7288.2 540 7225.7 540H7154.45V502.5H7926.95V540H7859.45C7796.95 540 7743.2 562.5 7698.2 607.5C7653.2 650 7629.45 702.5 7626.95 765V2883.75C7651.95 2911.25 7686.95 2952.5 7731.95 3007.5C7779.45 3062.5 7811.95 3101.25 7829.45 3123.75C7849.45 3146.25 7878.2 3178.75 7915.7 3221.25C7953.2 3263.75 7984.45 3296.25 8009.45 3318.75C8036.95 3343.75 8069.45 3373.75 8106.95 3408.75C8146.95 3446.25 8183.2 3475 8215.7 3495C8250.7 3517.5 8289.45 3542.5 8331.95 3570C8391.95 3605 8459.45 3631.25 8534.45 3648.75C8611.95 3666.25 8674.45 3675 8721.95 3675C8771.95 3675 8824.45 3670 8879.45 3660L8894.45 3697.5Z" fill="url(#paint0_linear_3018_32)"/>
<path d="M8966.32 3311.13C8813.19 3311.13 8672.57 3288.47 8544.44 3243.16C8417.88 3197.84 8315.54 3131.44 8237.41 3043.94C8159.29 2954.88 8116.32 2845.5 8108.5 2715.81C8105.38 2662.69 8113.97 2604.09 8134.28 2540.03C8154.6 2475.97 8182.72 2412.69 8218.66 2350.19C8256.16 2286.13 8299.91 2229.09 8349.91 2179.09C8401.47 2127.53 8456.16 2088.47 8513.97 2061.91C8518.66 2058.78 8525.69 2056.44 8535.07 2054.88C8546 2053.31 8553.82 2052.53 8558.5 2052.53C8567.88 2052.53 8572.57 2054.88 8572.57 2059.56C8572.57 2067.38 8560.85 2079.88 8537.41 2097.06C8471.79 2148.63 8417.88 2208 8375.69 2275.19C8331.94 2342.38 8299.13 2414.25 8277.25 2490.81C8255.38 2567.38 8244.44 2644.72 8244.44 2722.84C8244.44 2815.03 8263.97 2894.72 8303.04 2961.91C8343.66 3027.53 8397.57 3081.44 8464.75 3123.63C8531.94 3167.38 8608.5 3199.41 8694.44 3219.72C8780.38 3240.03 8870.22 3250.19 8963.97 3250.19C9068.66 3250.19 9171.79 3238.47 9273.35 3215.03C9376.47 3191.59 9470.22 3158 9554.6 3114.25C9684.29 3045.5 9786.63 2960.34 9861.63 2858.78C9938.19 2757.22 9976.47 2656.44 9976.47 2556.44C9976.47 2503.31 9964.75 2452.53 9941.32 2404.09C9919.44 2355.66 9883.5 2311.91 9833.5 2272.84C9796 2243.16 9749.91 2215.03 9695.22 2188.47C9642.1 2161.91 9585.07 2136.13 9524.13 2111.13C9464.75 2086.13 9406.16 2061.13 9348.35 2036.13C9290.54 2009.56 9239.75 1981.44 9196 1951.75C9133.5 1909.56 9087.41 1864.25 9057.72 1815.81C9029.6 1767.38 9015.54 1718.94 9015.54 1670.5C9015.54 1612.69 9031.94 1556.44 9064.75 1501.75C9099.13 1447.06 9145.22 1397.84 9203.03 1354.09C9262.41 1308.78 9328.82 1273.63 9402.25 1248.63C9466.32 1226.75 9535.85 1209.56 9610.85 1197.06C9687.41 1184.56 9762.41 1178.31 9835.85 1178.31C9896.79 1178.31 9954.6 1183 10009.3 1192.38C10065.5 1200.19 10114.8 1215.03 10156.9 1236.91C10210.1 1261.91 10250.7 1295.5 10278.8 1337.69C10306.9 1378.31 10321 1421.28 10321 1466.59C10321 1529.09 10292.9 1583.78 10236.6 1630.66C10216.3 1646.28 10193.7 1661.13 10168.7 1675.19C10143.7 1687.69 10114 1698.63 10079.6 1708C10073.3 1709.56 10066.3 1710.34 10058.5 1710.34C10039.8 1710.34 10030.4 1704.88 10030.4 1693.94C10030.4 1687.69 10035.1 1681.44 10044.4 1675.19C10055.4 1667.38 10071 1662.69 10091.3 1661.13C10138.2 1654.88 10173.3 1636.91 10196.8 1607.22C10221.8 1577.53 10234.3 1543.16 10234.3 1504.09C10234.3 1463.47 10220.2 1423.63 10192.1 1384.56C10165.5 1343.94 10124.1 1310.34 10067.9 1283.78C10011.6 1255.66 9939.75 1241.59 9852.25 1241.59C9802.25 1241.59 9746.79 1247.06 9685.85 1258C9626.47 1268.94 9561.63 1286.91 9491.32 1311.91C9405.38 1341.59 9333.5 1385.34 9275.69 1443.16C9219.44 1500.97 9191.32 1562.69 9191.32 1628.31C9191.32 1668.94 9204.6 1710.34 9231.16 1752.53C9259.29 1793.16 9303.82 1832.22 9364.75 1869.72C9416.32 1900.97 9474.91 1932.22 9540.54 1963.47C9606.16 1993.16 9672.57 2023.63 9739.75 2054.88C9806.94 2084.56 9867.88 2116.59 9922.57 2150.97C10008.5 2204.09 10070.2 2261.13 10107.7 2322.06C10145.2 2383 10164 2445.5 10164 2509.56C10164 2584.56 10141.3 2660.34 10096 2736.91C10052.3 2811.91 9994.44 2883 9922.57 2950.19C9850.69 3015.81 9771.79 3074.41 9685.85 3125.97C9585.85 3185.34 9472.57 3230.66 9346 3261.91C9221 3294.72 9094.44 3311.13 8966.32 3311.13Z" fill="url(#paint1_linear_3018_32)"/>
<path d="M9963.64 3735.34C9944.89 3735.34 9926.14 3732.22 9907.39 3725.97C9887.07 3721.28 9866.76 3720.5 9846.45 3723.63C9855.82 3714.25 9873.79 3686.91 9900.36 3641.59C9926.92 3597.84 9958.17 3542.38 9994.11 3475.19C10030 3409.56 10067.5 3337.69 10106.6 3259.56C10144.1 3183 10180.8 3107.22 10216.8 3032.22C10252.7 2955.66 10283.2 2885.34 10308.2 2821.28C10334.7 2755.66 10351.9 2703.31 10359.7 2664.25C10351.9 2664.25 10344.9 2662.69 10338.6 2659.56C10332.4 2656.44 10330 2650.97 10331.6 2643.16C10331.6 2643.16 10336.3 2629.09 10345.7 2600.97C10355 2572.84 10364.4 2539.25 10373.8 2500.19C10383.2 2459.56 10387.9 2422.84 10387.9 2390.03C10387.9 2368.16 10385.5 2349.41 10380.8 2333.78C10376.1 2318.16 10367.5 2309.56 10355 2308L10472.2 2289.25C10481.6 2287.69 10490.2 2286.91 10498 2286.91C10505.8 2285.34 10512.9 2284.56 10519.1 2284.56C10533.2 2284.56 10542.5 2290.03 10547.2 2300.97C10553.5 2310.34 10556.6 2330.66 10556.6 2361.91C10556.6 2400.97 10549.6 2450.97 10535.5 2511.91C10523 2571.28 10508.2 2623.63 10491 2668.94C10508.2 2640.81 10530 2604.88 10556.6 2561.13C10584.7 2517.38 10616.8 2472.84 10652.7 2427.53C10688.6 2382.22 10726.1 2344.72 10765.2 2315.03C10804.3 2283.78 10842.5 2268.16 10880 2268.16C10887.9 2268.16 10898 2269.72 10910.5 2272.84C10954.3 2283.78 10984.7 2305.66 11001.9 2338.47C11020.7 2369.72 11030 2407.22 11030 2450.97C11030 2497.84 11020.7 2549.41 11001.9 2605.66C10984.7 2661.91 10961.3 2717.38 10931.6 2772.06C10901.9 2825.19 10869.1 2873.63 10833.2 2917.38C10789.4 2972.06 10737.1 3015.81 10676.1 3048.63C10615.2 3081.44 10552.7 3097.84 10488.6 3097.84C10430.8 3097.84 10376.9 3083 10326.9 3053.31L10104.3 3613.47C10082.4 3660.34 10061.3 3692.38 10041 3709.56C10020.7 3726.75 9994.89 3735.34 9963.64 3735.34ZM10413.6 3048.63C10457.4 3048.63 10506.6 3028.31 10561.3 2987.69C10616 2947.06 10668.3 2895.5 10718.3 2833C10769.9 2768.94 10812.9 2704.88 10847.2 2640.81C10870.7 2597.06 10887.9 2557.22 10898.8 2521.28C10909.7 2483.78 10915.2 2451.75 10915.2 2425.19C10915.2 2364.25 10893.3 2333.78 10849.6 2333.78C10829.3 2333.78 10802.7 2344.72 10769.9 2366.59C10738.6 2388.47 10701.9 2428.31 10659.7 2486.13C10614.4 2548.63 10564.4 2627.53 10509.7 2722.84C10456.6 2816.59 10401.9 2915.81 10345.7 3020.5C10364.4 3039.25 10387.1 3048.63 10413.6 3048.63Z" fill="url(#paint2_linear_3018_32)"/>
<path d="M11229.1 3102.53C11171.3 3102.53 11128.3 3085.34 11100.2 3050.97C11073.6 3015.03 11060.4 2972.84 11060.4 2924.41C11060.4 2874.41 11067.4 2822.84 11081.5 2769.72C11095.5 2716.59 11108 2672.06 11119 2636.13C11144 2548.63 11175.2 2455.66 11212.7 2357.22C11251.8 2257.22 11294 2159.56 11339.3 2064.25C11386.1 1967.38 11432.2 1880.66 11477.6 1804.09C11513.5 1743.16 11551.8 1697.84 11592.4 1668.16C11634.6 1636.91 11671.3 1621.28 11702.6 1621.28C11727.6 1621.28 11747.1 1630.66 11761.1 1649.41C11776.8 1666.59 11784.6 1693.16 11784.6 1729.09C11784.6 1754.09 11779.9 1783.78 11770.5 1818.16C11762.7 1852.53 11748.6 1891.59 11728.3 1935.34C11673.6 2057.22 11608 2179.09 11531.5 2300.97C11456.5 2422.84 11361.1 2536.91 11245.5 2643.16C11226.8 2686.91 11211.1 2733.78 11198.6 2783.78C11186.1 2833.78 11179.9 2874.41 11179.9 2905.66C11179.9 3002.53 11212.7 3050.97 11278.3 3050.97C11328.3 3050.97 11383.8 3015.03 11444.7 2943.16C11505.7 2869.72 11563.5 2769.72 11618.2 2643.16C11624.4 2643.16 11630.7 2644.72 11636.9 2647.84C11643.2 2649.41 11646.3 2654.88 11646.3 2664.25C11629.1 2706.44 11607.2 2753.31 11580.7 2804.88C11555.7 2854.88 11526 2902.53 11491.6 2947.84C11458.8 2993.16 11420.5 3030.66 11376.8 3060.34C11333 3088.47 11283.8 3102.53 11229.1 3102.53ZM11264.3 2568.16C11320.5 2510.34 11375.2 2443.94 11428.3 2368.94C11481.5 2292.38 11530.7 2213.47 11576 2132.22C11622.9 2049.41 11661.9 1971.28 11693.2 1897.84C11704.1 1874.41 11712.7 1848.63 11719 1820.5C11726.8 1792.38 11730.7 1768.94 11730.7 1750.19C11730.7 1728.31 11725.2 1717.38 11714.3 1717.38C11708 1717.38 11698.6 1723.63 11686.1 1736.13C11673.6 1747.06 11657.2 1766.59 11636.9 1794.72C11607.2 1833.78 11574.4 1886.91 11538.5 1954.09C11504.1 2021.28 11469 2093.16 11433 2169.72C11397.1 2246.28 11364.3 2320.5 11334.6 2392.38C11304.9 2462.69 11281.5 2521.28 11264.3 2568.16Z" fill="url(#paint3_linear_3018_32)"/>
<path d="M11683.5 3095.5C11625.7 3095.5 11585.1 3079.09 11561.7 3046.28C11538.2 3011.91 11526.5 2972.84 11526.5 2929.09C11526.5 2905.66 11528.9 2882.22 11533.5 2858.78C11539.8 2833.78 11546.8 2811.13 11554.6 2790.81L11711.7 2390.03C11716.4 2377.53 11718.7 2366.59 11718.7 2357.22C11718.7 2341.59 11714.8 2328.31 11707 2317.38C11699.2 2304.88 11693.7 2296.28 11690.6 2291.59L11819.5 2286.91C11842.9 2285.34 11859.3 2288.47 11868.7 2296.28C11879.6 2302.53 11885.1 2310.34 11885.1 2319.72C11885.1 2329.09 11879.6 2346.28 11868.7 2371.28C11853.1 2408.78 11832 2455.66 11805.4 2511.91C11778.9 2568.16 11752.3 2625.97 11725.7 2685.34C11700.7 2744.72 11678.9 2800.19 11660.1 2851.75C11642.9 2903.31 11634.3 2943.16 11634.3 2971.28C11634.3 2991.59 11639 3008.78 11648.4 3022.84C11659.3 3036.91 11677.3 3043.94 11702.3 3043.94C11735.1 3043.94 11767.1 3031.44 11798.4 3006.44C11831.2 2979.88 11861.7 2946.28 11889.8 2905.66C11917.9 2865.03 11943.7 2821.28 11967.1 2774.41C11992.1 2727.53 12013.2 2683.78 12030.4 2643.16C12049.2 2643.16 12058.5 2650.19 12058.5 2664.25C12042.9 2703.31 12022.6 2747.84 11997.6 2797.84C11972.6 2847.84 11943.7 2895.5 11910.9 2940.81C11879.6 2984.56 11844.5 3021.28 11805.4 3050.97C11767.9 3080.66 11727.3 3095.5 11683.5 3095.5ZM11892.1 2141.59C11871.8 2141.59 11853.9 2133.78 11838.2 2118.16C11824.2 2102.53 11817.1 2083.78 11817.1 2061.91C11817.1 2035.34 11828.1 2011.91 11850 1991.59C11871.8 1969.72 11896 1958.78 11922.6 1958.78C11944.5 1958.78 11963.2 1965.81 11978.9 1979.88C11994.5 1993.94 12002.3 2011.91 12002.3 2033.78C12002.3 2061.91 11991.4 2086.91 11969.5 2108.78C11947.6 2130.66 11921.8 2141.59 11892.1 2141.59Z" fill="url(#paint4_linear_3018_32)"/>
<path d="M12515.1 1858C12494.8 1887.69 12472.1 1925.19 12447.1 1970.5C12422.1 2015.81 12398.7 2059.56 12376.8 2101.75C12356.5 2143.94 12340.8 2175.97 12329.9 2197.84H12545.5C12545.5 2204.09 12542.4 2214.25 12536.2 2228.31C12531.5 2242.38 12521.3 2252.53 12505.7 2258.78H12301.8C12283 2300.97 12261.2 2351.75 12236.2 2411.13C12212.7 2470.5 12189.3 2532.22 12165.8 2596.28C12144 2660.34 12125.2 2720.5 12109.6 2776.75C12095.5 2831.44 12088.5 2875.97 12088.5 2910.34C12088.5 2957.22 12094.8 2992.38 12107.3 3015.81C12119.8 3037.69 12142.4 3048.63 12175.2 3048.63C12217.4 3048.63 12258 3028.31 12297.1 2987.69C12336.2 2945.5 12372.9 2893.16 12407.3 2830.66C12443.2 2768.16 12474.4 2705.66 12501 2643.16C12519.8 2643.16 12529.1 2650.19 12529.1 2664.25C12511.9 2706.44 12490.8 2752.53 12465.8 2802.53C12440.8 2852.53 12411.9 2900.97 12379.1 2947.84C12347.9 2993.16 12311.9 3030.66 12271.3 3060.34C12232.3 3088.47 12188.5 3102.53 12140.1 3102.53C12074.4 3102.53 12029.9 3084.56 12006.5 3048.63C11983 3011.13 11971.3 2963.47 11971.3 2905.66C11971.3 2863.47 11979.1 2812.69 11994.8 2753.31C12010.4 2692.38 12029.1 2629.88 12051 2565.81C12074.4 2501.75 12097.1 2442.38 12119 2387.69C12140.8 2331.44 12158 2288.47 12170.5 2258.78H12020.5C12020.5 2246.28 12026 2233 12036.9 2218.94C12047.9 2204.88 12059.6 2197.84 12072.1 2197.84H12196.3C12208.8 2172.84 12222.9 2141.59 12238.5 2104.09C12255.7 2066.59 12278.3 2025.19 12306.5 1979.88C12329.9 1942.38 12359.6 1912.69 12395.5 1890.81C12433 1868.94 12472.9 1858 12515.1 1858Z" fill="url(#paint5_linear_3018_32)"/>
<path d="M858.438 3311.13C705.313 3311.13 564.688 3288.47 436.563 3243.16C310 3197.84 207.656 3131.44 129.531 3043.94C51.4063 2954.88 8.4375 2845.5 0.625 2715.81C-2.5 2662.69 6.09375 2604.09 26.4062 2540.03C46.7188 2475.97 74.8438 2412.69 110.781 2350.19C148.281 2286.13 192.031 2229.09 242.031 2179.09C293.594 2127.53 348.281 2088.47 406.094 2061.91C410.781 2058.78 417.813 2056.44 427.188 2054.88C438.125 2053.31 445.938 2052.53 450.625 2052.53C460 2052.53 464.688 2054.88 464.688 2059.56C464.688 2067.38 452.969 2079.88 429.531 2097.06C363.906 2148.63 310 2208 267.813 2275.19C224.063 2342.38 191.25 2414.25 169.375 2490.81C147.5 2567.38 136.562 2644.72 136.562 2722.84C136.562 2815.03 156.094 2894.72 195.156 2961.91C235.781 3027.53 289.688 3081.44 356.875 3123.63C424.063 3167.38 500.625 3199.41 586.563 3219.72C672.5 3240.03 762.344 3250.19 856.094 3250.19C960.781 3250.19 1063.91 3238.47 1165.47 3215.03C1268.59 3191.59 1362.34 3158 1446.72 3114.25C1576.41 3045.5 1678.75 2960.34 1753.75 2858.78C1830.31 2757.22 1868.59 2656.44 1868.59 2556.44C1868.59 2503.31 1856.88 2452.53 1833.44 2404.09C1811.56 2355.66 1775.63 2311.91 1725.63 2272.84C1688.13 2243.16 1642.03 2215.03 1587.34 2188.47C1534.22 2161.91 1477.19 2136.13 1416.25 2111.13C1356.88 2086.13 1298.28 2061.13 1240.47 2036.13C1182.66 2009.56 1131.88 1981.44 1088.13 1951.75C1025.63 1909.56 979.531 1864.25 949.844 1815.81C921.719 1767.38 907.656 1718.94 907.656 1670.5C907.656 1612.69 924.063 1556.44 956.875 1501.75C991.25 1447.06 1037.34 1397.84 1095.16 1354.09C1154.53 1308.78 1220.94 1273.63 1294.38 1248.63C1358.44 1226.75 1427.97 1209.56 1502.97 1197.06C1579.53 1184.56 1654.53 1178.31 1727.97 1178.31C1788.91 1178.31 1846.72 1183 1901.41 1192.38C1957.66 1200.19 2006.88 1215.03 2049.06 1236.91C2102.19 1261.91 2142.81 1295.5 2170.94 1337.69C2199.06 1378.31 2213.13 1421.28 2213.13 1466.59C2213.13 1529.09 2185 1583.78 2128.75 1630.66C2108.44 1646.28 2085.78 1661.13 2060.78 1675.19C2035.78 1687.69 2006.09 1698.63 1971.72 1708C1965.47 1709.56 1958.44 1710.34 1950.63 1710.34C1931.88 1710.34 1922.5 1704.88 1922.5 1693.94C1922.5 1687.69 1927.19 1681.44 1936.56 1675.19C1947.5 1667.38 1963.13 1662.69 1983.44 1661.13C2030.31 1654.88 2065.47 1636.91 2088.91 1607.22C2113.91 1577.53 2126.41 1543.16 2126.41 1504.09C2126.41 1463.47 2112.34 1423.63 2084.22 1384.56C2057.66 1343.94 2016.25 1310.34 1960 1283.78C1903.75 1255.66 1831.88 1241.59 1744.38 1241.59C1694.38 1241.59 1638.91 1247.06 1577.97 1258C1518.59 1268.94 1453.75 1286.91 1383.44 1311.91C1297.5 1341.59 1225.62 1385.34 1167.81 1443.16C1111.56 1500.97 1083.44 1562.69 1083.44 1628.31C1083.44 1668.94 1096.72 1710.34 1123.28 1752.53C1151.41 1793.16 1195.94 1832.22 1256.88 1869.72C1308.44 1900.97 1367.03 1932.22 1432.66 1963.47C1498.28 1993.16 1564.69 2023.63 1631.88 2054.88C1699.06 2084.56 1760 2116.59 1814.69 2150.97C1900.63 2204.09 1962.34 2261.13 1999.84 2322.06C2037.34 2383 2056.09 2445.5 2056.09 2509.56C2056.09 2584.56 2033.44 2660.34 1988.13 2736.91C1944.38 2811.91 1886.56 2883 1814.69 2950.19C1742.81 3015.81 1663.91 3074.41 1577.97 3125.97C1477.97 3185.34 1364.69 3230.66 1238.13 3261.91C1113.13 3294.72 986.563 3311.13 858.438 3311.13Z" fill="url(#paint6_linear_3018_32)"/>
<path d="M1996.38 3114.25C2062.01 2979.88 2129.98 2839.25 2200.29 2692.38C2272.16 2543.94 2345.6 2394.72 2420.6 2244.72C2495.6 2094.72 2569.82 1951.75 2643.26 1815.81C2669.82 1768.94 2694.04 1732.22 2715.91 1705.66C2739.35 1679.09 2769.82 1665.81 2807.32 1665.81C2821.38 1665.81 2837.79 1668.16 2856.54 1672.84C2875.29 1677.53 2893.26 1678.31 2910.45 1675.19C2890.13 1697.06 2862.01 1735.34 2826.07 1790.03C2791.7 1844.72 2752.63 1910.34 2708.88 1986.91C2666.7 2063.47 2621.38 2146.28 2572.95 2235.34C2526.07 2322.84 2479.2 2411.91 2432.32 2502.53C2387.01 2591.59 2344.82 2675.19 2305.76 2753.31C2337.01 2712.69 2369.04 2674.41 2401.85 2638.47C2434.66 2602.53 2466.7 2571.28 2497.95 2544.72C2532.32 2513.47 2575.29 2480.66 2626.85 2446.28C2679.98 2411.91 2732.32 2382.22 2783.88 2357.22C2837.01 2332.22 2879.2 2319.72 2910.45 2319.72C2921.38 2319.72 2929.2 2320.5 2933.88 2322.06C2933.88 2322.06 2925.29 2337.69 2908.1 2368.94C2890.91 2400.19 2869.04 2440.03 2842.48 2488.47C2817.48 2536.91 2790.91 2589.25 2762.79 2645.5C2736.23 2701.75 2712.79 2755.66 2692.48 2807.22C2672.16 2857.22 2658.88 2898.63 2652.63 2931.44C2647.95 2956.44 2645.6 2977.53 2645.6 2994.72C2645.6 3019.72 2650.29 3036.91 2659.66 3046.28C2669.04 3054.09 2679.2 3058 2690.13 3058C2716.7 3058 2744.82 3044.72 2774.51 3018.16C2805.76 2990.03 2836.23 2954.88 2865.91 2912.69C2895.6 2870.5 2922.95 2825.97 2947.95 2779.09C2974.51 2730.66 2995.6 2685.34 3011.23 2643.16C3029.98 2643.16 3039.35 2650.19 3039.35 2664.25C3022.16 2706.44 3000.29 2753.31 2973.73 2804.88C2948.73 2854.88 2919.82 2902.53 2887.01 2947.84C2854.2 2993.16 2818.26 3030.66 2779.2 3060.34C2740.13 3090.03 2698.73 3104.88 2654.98 3104.88C2623.73 3104.88 2591.7 3093.94 2558.88 3072.06C2526.07 3050.19 2509.66 3010.34 2509.66 2952.53C2509.66 2935.34 2511.23 2917.38 2514.35 2898.63C2517.48 2878.31 2522.95 2855.66 2530.76 2830.66C2540.13 2799.41 2555.76 2765.03 2577.63 2727.53C2599.51 2688.47 2627.63 2640.03 2662.01 2582.22C2677.63 2555.66 2685.45 2534.56 2685.45 2518.94C2685.45 2500.19 2676.07 2490.81 2657.32 2490.81C2641.7 2490.81 2620.6 2498.63 2594.04 2514.25C2567.48 2529.88 2533.88 2557.22 2493.26 2596.28C2454.2 2633.78 2405.76 2688.47 2347.95 2760.34C2290.13 2832.22 2228.41 2933 2162.79 3062.69C2151.85 3083 2139.35 3093.94 2125.29 3095.5C2112.79 3095.5 2095.6 3096.28 2073.73 3097.84C2059.66 3099.41 2045.6 3100.19 2031.54 3100.19C2017.48 3101.75 2005.76 3106.44 1996.38 3114.25Z" fill="url(#paint7_linear_3018_32)"/>
<path d="M3519.67 3102.53C3483.74 3102.53 3451.71 3092.38 3423.58 3072.06C3397.02 3051.75 3383.74 3010.34 3383.74 2947.84C3383.74 2921.28 3385.3 2896.28 3388.42 2872.84C3393.11 2849.41 3398.58 2824.41 3404.83 2797.84C3390.77 2821.28 3371.24 2850.19 3346.24 2884.56C3321.24 2918.94 3293.11 2952.53 3261.86 2985.34C3232.17 3018.16 3200.92 3045.5 3168.11 3067.38C3136.86 3089.25 3107.17 3100.19 3079.05 3100.19C3038.42 3100.19 3005.61 3082.22 2980.61 3046.28C2955.61 3008.78 2943.11 2960.34 2943.11 2900.97C2943.11 2836.91 2957.96 2768.16 2987.64 2694.72C3017.33 2621.28 3057.96 2550.97 3109.52 2483.78C3161.08 2416.59 3220.46 2361.91 3287.64 2319.72C3354.83 2277.53 3425.14 2256.44 3498.58 2256.44C3534.52 2256.44 3568.89 2262.69 3601.71 2275.19C3634.52 2286.13 3663.42 2304.88 3688.42 2331.44C3699.36 2342.38 3704.83 2354.88 3704.83 2368.94C3704.83 2378.31 3700.92 2386.13 3693.11 2392.38C3685.3 2398.63 3675.14 2400.19 3662.64 2397.06C3645.46 2342.38 3608.74 2315.03 3552.49 2315.03C3525.92 2315.03 3495.46 2323.63 3461.08 2340.81C3418.89 2362.69 3373.58 2397.84 3325.14 2446.28C3278.27 2493.16 3233.74 2547.06 3191.55 2608C3150.92 2667.38 3117.33 2727.53 3090.77 2788.47C3064.21 2849.41 3050.92 2904.88 3050.92 2954.88C3050.92 3006.44 3070.46 3032.22 3109.52 3032.22C3143.89 3032.22 3179.05 3015.81 3214.99 2983C3252.49 2950.19 3287.64 2909.56 3320.46 2861.13C3354.83 2811.13 3386.08 2761.91 3414.21 2713.47C3442.33 2665.03 3464.21 2625.97 3479.83 2596.28C3503.27 2554.09 3525.14 2518.94 3545.46 2490.81C3565.77 2462.69 3594.67 2448.63 3632.17 2448.63C3649.36 2448.63 3666.55 2450.97 3683.74 2455.66C3700.92 2460.34 3718.89 2461.13 3737.64 2458C3690.77 2504.88 3649.36 2560.34 3613.42 2624.41C3579.05 2688.47 3552.49 2751.75 3533.74 2814.25C3514.99 2875.19 3505.61 2926.75 3505.61 2968.94C3505.61 3015.81 3521.24 3039.25 3552.49 3039.25C3577.49 3039.25 3604.05 3025.19 3632.17 2997.06C3661.86 2968.94 3689.99 2933.78 3716.55 2891.59C3744.67 2847.84 3770.46 2804.09 3793.89 2760.34C3817.33 2715.03 3836.08 2675.97 3850.14 2643.16C3857.96 2643.16 3864.21 2643.94 3868.89 2645.5C3875.14 2647.06 3878.27 2653.31 3878.27 2664.25C3876.71 2670.5 3873.58 2677.53 3868.89 2685.34C3865.77 2691.59 3860.3 2703.31 3852.49 2720.5C3839.99 2745.5 3822.8 2779.09 3800.92 2821.28C3779.05 2863.47 3753.27 2906.44 3723.58 2950.19C3693.89 2992.38 3661.86 3028.31 3627.49 3058C3593.11 3087.69 3557.17 3102.53 3519.67 3102.53Z" fill="url(#paint8_linear_3018_32)"/>
<path d="M3853.42 2636.13C3865.92 2609.56 3882.33 2567.38 3902.64 2509.56C3922.95 2450.19 3944.05 2384.56 3965.92 2312.69C3987.8 2240.81 4004.2 2172.84 4015.14 2108.78C4019.83 2083.78 4028.42 2065.81 4040.92 2054.88C4053.42 2042.38 4066.7 2036.13 4080.76 2036.13C4101.08 2036.13 4119.83 2046.28 4137.01 2066.59C4154.2 2085.34 4162.8 2112.69 4162.8 2148.63C4162.8 2192.38 4149.51 2229.88 4122.95 2261.13C4097.95 2292.38 4066.7 2322.06 4029.2 2350.19C4044.83 2351.75 4061.23 2353.31 4078.42 2354.88C4095.61 2354.88 4114.36 2354.88 4134.67 2354.88C4208.11 2354.88 4280.76 2350.19 4352.64 2340.81C4355.76 2350.19 4357.33 2357.22 4357.33 2361.91C4357.33 2382.22 4351.08 2408 4338.58 2439.25C4327.64 2470.5 4315.92 2498.63 4303.42 2523.63C4297.17 2537.69 4284.67 2563.47 4265.92 2600.97C4247.17 2636.91 4226.86 2678.31 4204.98 2725.19C4183.11 2770.5 4164.36 2815.81 4148.73 2861.13C4134.67 2904.88 4127.64 2942.38 4127.64 2973.63C4127.64 3014.25 4143.26 3034.56 4174.51 3034.56C4204.2 3034.56 4245.61 3000.19 4298.73 2931.44C4351.86 2861.13 4404.98 2765.03 4458.11 2643.16C4476.86 2643.16 4486.23 2650.19 4486.23 2664.25C4469.05 2706.44 4447.17 2752.53 4420.61 2802.53C4395.61 2852.53 4367.48 2900.19 4336.23 2945.5C4304.98 2989.25 4271.39 3025.97 4235.45 3055.66C4199.51 3083.78 4162.01 3097.84 4122.95 3097.84C4093.26 3097.84 4063.58 3086.13 4033.89 3062.69C4004.2 3037.69 3989.36 2997.84 3989.36 2943.16C3989.36 2894.72 3998.73 2847.84 4017.48 2802.53C4036.23 2755.66 4057.33 2711.91 4080.76 2671.28C4104.2 2630.66 4125.3 2594.72 4144.05 2563.47C4162.8 2532.22 4172.17 2507.22 4172.17 2488.47C4172.17 2460.34 4154.2 2440.03 4118.26 2427.53C4083.89 2415.03 4038.58 2408 3982.33 2406.44C3954.2 2478.31 3933.11 2531.44 3919.05 2565.81C3904.98 2600.19 3891.7 2633 3879.2 2664.25C3854.2 2664.25 3845.61 2654.88 3853.42 2636.13Z" fill="url(#paint9_linear_3018_32)"/>
<path d="M4626.36 3104.88C4568.55 3104.88 4516.21 3086.13 4469.33 3048.63C4424.02 3011.13 4401.36 2954.09 4401.36 2877.53C4401.36 2813.47 4415.43 2745.5 4443.55 2673.63C4473.24 2601.75 4511.52 2534.56 4558.39 2472.06C4606.83 2408 4659.96 2356.44 4717.77 2317.38C4777.14 2276.75 4836.52 2256.44 4895.89 2256.44C4925.58 2256.44 4954.49 2265.03 4982.61 2282.22C5010.74 2299.41 5024.8 2329.09 5024.8 2371.28C5024.8 2410.34 5009.96 2453.31 4980.27 2500.19C4950.58 2547.06 4908.39 2590.81 4853.71 2631.44C4830.27 2648.63 4800.58 2665.03 4764.64 2680.66C4728.71 2696.28 4692.77 2709.56 4656.83 2720.5C4620.89 2729.88 4591.21 2734.56 4567.77 2734.56C4559.96 2753.31 4552.14 2778.31 4544.33 2809.56C4538.08 2840.81 4534.96 2872.84 4534.96 2905.66C4534.96 2944.72 4542.77 2979.88 4558.39 3011.13C4574.02 3042.38 4602.93 3058 4645.11 3058C4696.68 3058 4744.33 3043.16 4788.08 3013.47C4833.39 2983.78 4873.24 2946.28 4907.61 2900.97C4943.55 2855.66 4974.02 2809.56 4999.02 2762.69C5024.02 2715.81 5043.55 2675.97 5057.61 2643.16C5076.36 2643.16 5085.74 2650.19 5085.74 2664.25C5065.43 2708 5041.99 2755.66 5015.43 2807.22C4990.43 2858.78 4959.96 2907.22 4924.02 2952.53C4889.64 2996.28 4847.46 3033 4797.46 3062.69C4749.02 3090.81 4691.99 3104.88 4626.36 3104.88ZM4584.18 2692.38C4606.05 2692.38 4642.77 2684.56 4694.33 2668.94C4745.89 2651.75 4792.77 2625.19 4834.96 2589.25C4875.58 2553.31 4906.83 2514.25 4928.71 2472.06C4950.58 2428.31 4961.52 2391.59 4961.52 2361.91C4961.52 2327.53 4949.02 2310.34 4924.02 2310.34C4905.27 2310.34 4879.49 2322.84 4846.68 2347.84C4813.86 2372.84 4773.24 2415.03 4724.8 2474.41C4695.11 2511.91 4666.99 2552.53 4640.43 2596.28C4613.86 2640.03 4595.11 2672.06 4584.18 2692.38Z" fill="url(#paint10_linear_3018_32)"/>
<defs>
<linearGradient id="paint0_linear_3018_32" x1="6272.77" y1="0" x2="6272.77" y2="3754.66" gradientUnits="userSpaceOnUse">
<stop stop-color="#B20000"/>
<stop offset="1" stop-color="#FF5C00"/>
</linearGradient>
<linearGradient id="paint1_linear_3018_32" x1="6272.77" y1="0" x2="6272.77" y2="3754.66" gradientUnits="userSpaceOnUse">
<stop stop-color="#B20000"/>
<stop offset="1" stop-color="#FF5C00"/>
</linearGradient>
<linearGradient id="paint2_linear_3018_32" x1="6272.77" y1="0" x2="6272.77" y2="3754.66" gradientUnits="userSpaceOnUse">
<stop stop-color="#B20000"/>
<stop offset="1" stop-color="#FF5C00"/>
</linearGradient>
<linearGradient id="paint3_linear_3018_32" x1="6272.77" y1="0" x2="6272.77" y2="3754.66" gradientUnits="userSpaceOnUse">
<stop stop-color="#B20000"/>
<stop offset="1" stop-color="#FF5C00"/>
</linearGradient>
<linearGradient id="paint4_linear_3018_32" x1="6272.77" y1="0" x2="6272.77" y2="3754.66" gradientUnits="userSpaceOnUse">
<stop stop-color="#B20000"/>
<stop offset="1" stop-color="#FF5C00"/>
</linearGradient>
<linearGradient id="paint5_linear_3018_32" x1="6272.77" y1="0" x2="6272.77" y2="3754.66" gradientUnits="userSpaceOnUse">
<stop stop-color="#B20000"/>
<stop offset="1" stop-color="#FF5C00"/>
</linearGradient>
<linearGradient id="paint6_linear_3018_32" x1="6272.77" y1="0" x2="6272.77" y2="3754.66" gradientUnits="userSpaceOnUse">
<stop stop-color="#B20000"/>
<stop offset="1" stop-color="#FF5C00"/>
</linearGradient>
<linearGradient id="paint7_linear_3018_32" x1="6272.77" y1="0" x2="6272.77" y2="3754.66" gradientUnits="userSpaceOnUse">
<stop stop-color="#B20000"/>
<stop offset="1" stop-color="#FF5C00"/>
</linearGradient>
<linearGradient id="paint8_linear_3018_32" x1="6272.77" y1="0" x2="6272.77" y2="3754.66" gradientUnits="userSpaceOnUse">
<stop stop-color="#B20000"/>
<stop offset="1" stop-color="#FF5C00"/>
</linearGradient>
<linearGradient id="paint9_linear_3018_32" x1="6272.77" y1="0" x2="6272.77" y2="3754.66" gradientUnits="userSpaceOnUse">
<stop stop-color="#B20000"/>
<stop offset="1" stop-color="#FF5C00"/>
</linearGradient>
<linearGradient id="paint10_linear_3018_32" x1="6272.77" y1="0" x2="6272.77" y2="3754.66" gradientUnits="userSpaceOnUse">
<stop stop-color="#B20000"/>
<stop offset="1" stop-color="#FF5C00"/>
</linearGradient>
</defs>
</svg>
